HIERARCHY
ROOT Hips
{
	OFFSET 0.000000 0.000000 0.000000 
	CHANNELS 6 Xposition Yposition Zposition Yrotation Xrotation Zrotation
	JOINT Spine
	{
		OFFSET 0.000000 0.072080 0.012321 
		CHANNELS 3 Xrotation Yrotation Zrotation
		JOINT Spine1
		{
			OFFSET 0.000000 0.126984 -0.001294 
			CHANNELS 3 Xrotation Yrotation Zrotation
			JOINT Spine2
			{
				OFFSET 0.000000 0.106559 -0.010096 
				CHANNELS 3 Xrotation Yrotation Zrotation
				JOINT Neck
				{
					OFFSET 0.000000 0.108417 -0.034017 
					CHANNELS 3 Xrotation Yrotation Zrotation
					JOINT Neck1
					{
						OFFSET 0.000000 0.033906 0.007241 
						CHANNELS 3 Xrotation Yrotation Zrotation
						JOINT Head
						{
							OFFSET 0.000000 0.031458 0.006707 
							CHANNELS 3 Xrotation Yrotation Zrotation
							End Site
							{
								OFFSET 0.000000 0.179920 0.000962 
							}
						}
					}
				}
				JOINT LeftShoulder
				{
					OFFSET 0.048002 0.079586 -0.029634 
					CHANNELS 3 Zrotation Xrotation Yrotation
					JOINT LeftArm
					{
						OFFSET 0.096243 -0.008695 -0.014012 
						CHANNELS 3 Zrotation Xrotation Yrotation
						JOINT LeftForeArm
						{
							OFFSET 0.216305 0.000000 0.000000 
							CHANNELS 3 Xrotation Zrotation Yrotation
							JOINT LeftHand
							{
								OFFSET 0.217764 0.000000 0.000000 
								CHANNELS 3 Zrotation Yrotation Xrotation
								JOINT LeftHandThumb1
								{
									OFFSET 0.018582 -0.007835 0.020476 
									CHANNELS 3 Zrotation Xrotation Yrotation
									JOINT LeftHandThumb2
									{
										OFFSET 0.026269 -0.007835 0.022186 
										CHANNELS 3 Zrotation Xrotation Yrotation
										JOINT LeftHandThumb3
										{
											OFFSET 0.035170 -0.010504 0.017018 
											CHANNELS 3 Zrotation Xrotation Yrotation
											End Site
											{
												OFFSET 0.020312 -0.007813 0.007813 
											}
										}
									}
								}
								JOINT LeftHandMiddle1
								{
									OFFSET 0.081749 0.004803 0.003358 
									CHANNELS 3 Zrotation Xrotation Yrotation
									JOINT LeftHandMiddle2
									{
										OFFSET 0.045251 0.000000 0.000000 
										CHANNELS 3 Zrotation Xrotation Yrotation
										JOINT LeftHandMiddle3
										{
											OFFSET 0.029009 0.000000 0.000000 
											CHANNELS 3 Zrotation Xrotation Yrotation
											End Site
											{
												OFFSET 0.017969 0.000000 0.000000 
											}
										}
									}
								}
								JOINT LeftHandIndex1
								{
									OFFSET 0.081207 0.004803 0.021137 
									CHANNELS 3 Zrotation Xrotation Yrotation
									JOINT LeftHandIndex2
									{
										OFFSET 0.043354 0.000000 0.000000 
										CHANNELS 3 Zrotation Xrotation Yrotation
										JOINT LeftHandIndex3
										{
											OFFSET 0.026493 0.000000 0.000000 
											CHANNELS 3 Zrotation Xrotation Yrotation
											End Site
											{
												OFFSET 0.019531 0.000000 0.000000 
											}
										}
									}
								}
								JOINT LeftHandRing1
								{
									OFFSET 0.080666 0.002509 -0.014652 
									CHANNELS 3 Zrotation Xrotation Yrotation
									JOINT LeftHandRing2
									{
										OFFSET 0.042541 0.000000 0.000000 
										CHANNELS 3 Zrotation Xrotation Yrotation
										JOINT LeftHandRing3
										{
											OFFSET 0.029009 0.000000 0.000000 
											CHANNELS 3 Zrotation Xrotation Yrotation
											End Site
											{
												OFFSET 0.015625 0.000000 0.000000 
											}
										}
									}
								}
								JOINT LeftHandPinky1
								{
									OFFSET 0.078227 -0.000612 -0.030993 
									CHANNELS 3 Zrotation Xrotation Yrotation
									JOINT LeftHandPinky2
									{
										OFFSET 0.028721 0.000000 0.000000 
										CHANNELS 3 Zrotation Xrotation Yrotation
										JOINT LeftHandPinky3
										{
											OFFSET 0.021963 0.000000 0.000000 
											CHANNELS 3 Zrotation Xrotation Yrotation
											End Site
											{
												OFFSET 0.022656 0.000000 0.000000 
											}
										}
									}
								}
							}
						}
					}
				}
				JOINT RightShoulder
				{
					OFFSET -0.047970 0.079586 -0.029634 
					CHANNELS 3 Zrotation Xrotation Yrotation
					JOINT RightArm
					{
						OFFSET -0.096274 -0.008695 -0.014012 
						CHANNELS 3 Zrotation Xrotation Yrotation
						JOINT RightForeArm
						{
							OFFSET -0.216305 0.000000 0.000000 
							CHANNELS 3 Xrotation Zrotation Yrotation
							JOINT RightHand
							{
								OFFSET -0.217764 0.000000 0.000000 
								CHANNELS 3 Zrotation Yrotation Xrotation
								JOINT RightHandThumb1
								{
									OFFSET -0.019670 -0.007318 0.019638 
									CHANNELS 3 Zrotation Xrotation Yrotation
									JOINT RightHandThumb2
									{
										OFFSET -0.025498 -0.008492 0.023179 
										CHANNELS 3 Zrotation Xrotation Yrotation
										JOINT RightHandThumb3
										{
											OFFSET -0.034504 -0.010705 0.016680 
											CHANNELS 3 Zrotation Xrotation Yrotation
											End Site
											{
												OFFSET -0.020312 -0.007813 0.007813 
											}
										}
									}
								}
								JOINT RightHandIndex1
								{
									OFFSET -0.081770 0.003825 0.021187 
									CHANNELS 3 Zrotation Xrotation Yrotation
									JOINT RightHandIndex2
									{
										OFFSET -0.042006 0.000000 0.000000 
										CHANNELS 3 Zrotation Xrotation Yrotation
										JOINT RightHandIndex3
										{
											OFFSET -0.026449 0.000000 0.000000 
											CHANNELS 3 Zrotation Xrotation Yrotation
											End Site
											{
												OFFSET -0.020312 0.000000 0.000000 
											}
										}
									}
								}
								JOINT RightHandMiddle1
								{
									OFFSET -0.084059 0.003825 0.003342 
									CHANNELS 3 Zrotation Xrotation Yrotation
									JOINT RightHandMiddle2
									{
										OFFSET -0.043881 0.000000 0.000000 
										CHANNELS 3 Zrotation Xrotation Yrotation
										JOINT RightHandMiddle3
										{
											OFFSET -0.029191 0.000000 0.000000 
											CHANNELS 3 Zrotation Xrotation Yrotation
											End Site
											{
												OFFSET -0.017969 0.000000 0.000000 
											}
										}
									}
								}
								JOINT RightHandRing1
								{
									OFFSET -0.081798 0.003030 -0.015127 
									CHANNELS 3 Zrotation Xrotation Yrotation
									JOINT RightHandRing2
									{
										OFFSET -0.042198 0.000000 0.000000 
										CHANNELS 3 Zrotation Xrotation Yrotation
										JOINT RightHandRing3
										{
											OFFSET -0.026497 0.000000 0.000000 
											CHANNELS 3 Zrotation Xrotation Yrotation
											End Site
											{
												OFFSET -0.017188 0.000000 0.000000 
											}
										}
									}
								}
								JOINT RightHandPinky1
								{
									OFFSET -0.077902 -0.000930 -0.030891 
									CHANNELS 3 Zrotation Xrotation Yrotation
									JOINT RightHandPinky2
									{
										OFFSET -0.028538 0.000000 0.000000 
										CHANNELS 3 Zrotation Xrotation Yrotation
										JOINT RightHandPinky3
										{
											OFFSET -0.021734 0.000000 0.000000 
											CHANNELS 3 Zrotation Xrotation Yrotation
											End Site
											{
												OFFSET -0.022656 0.000000 0.000000 
											}
										}
									}
								}
							}
						}
					}
				}
			}
		}
	}
	JOINT LeftUpLeg
	{
		OFFSET 0.075264 -0.025573 0.000000 
		CHANNELS 3 Xrotation Yrotation Zrotation
		JOINT LeftLeg
		{
			OFFSET 0.000000 -0.326016 -0.013516 
			CHANNELS 3 Xrotation Yrotation Zrotation
			JOINT LeftFoot
			{
				OFFSET 0.000098 -0.306172 -0.006623 
				CHANNELS 3 Xrotation Yrotation Zrotation
				JOINT LeftToeBase
				{
					OFFSET -0.001432 -0.095259 0.064705 
					CHANNELS 3 Xrotation Yrotation Zrotation
					End Site
					{
						OFFSET 0.000000 0.000000 0.079438 
					}
				}
			}
		}
	}
	JOINT RightUpLeg
	{
		OFFSET -0.075264 -0.025573 0.000000 
		CHANNELS 3 Xrotation Yrotation Zrotation
		JOINT RightLeg
		{
			OFFSET 0.000000 -0.326016 -0.013516 
			CHANNELS 3 Xrotation Yrotation Zrotation
			JOINT RightFoot
			{
				OFFSET 0.000098 -0.306172 -0.006623 
				CHANNELS 3 Xrotation Yrotation Zrotation
				JOINT RightToeBase
				{
					OFFSET -0.001432 -0.095259 0.064705 
					CHANNELS 3 Xrotation Yrotation Zrotation
					End Site
					{
						OFFSET 0.000025 0.000000 0.079438 
					}
				}
			}
		}
	}
}
MOTION
Frames: 4
Frame Time: 0.033333
0.010583 0.919957 1.633948 8.590400 -13.312900 -4.484100 39.989700 7.285800 6.125200 0.959500 0.232400 2.820800 0.949300 0.433700 2.802200 6.012300 -2.131500 -0.840800 -0.000000 0.000000 -0.000000 3.819500 -13.800800 5.704900 5.608000 -0.078100 6.110600 27.843399 -8.634300 -2.832000 -0.000000 0.000000 -13.480900 22.354099 -5.851600 -5.525100 -3.386000 4.641600 16.319799 -0.003200 0.001800 4.528800 11.213800 -14.979000 -25.510201 19.633699 1.381400 3.450700 -10.773900 0.000300 -0.002800 15.448400 0.000500 0.004000 20.302900 -5.639500 -7.511700 -4.900100 0.000100 -0.001300 0.602700 0.000000 0.000200 18.234301 1.741100 1.740100 -6.784500 0.000100 -0.001800 -4.532200 0.000000 -0.001200 8.236800 0.130400 11.037400 -6.340900 0.000100 -0.001700 7.570800 0.000100 0.002000 -2.120500 -0.248200 -4.419300 32.247299 9.836400 -10.266000 -0.000000 -0.000000 22.187599 2.469600 -23.840401 0.021000 0.284600 -16.618799 -6.449600 -0.002800 -0.006700 -10.382300 -16.725700 -10.210200 7.712700 -24.171499 0.000500 -0.002900 15.690100 0.000300 0.002100 8.945900 0.000100 0.001200 -9.847500 -4.808100 -5.058000 20.762199 0.000500 0.002800 8.621200 0.000100 0.001200 -1.524200 -0.299300 -8.702900 30.902300 0.001100 0.004100 12.190100 0.000200 0.001700 3.691300 2.057600 -7.005000 19.427700 0.000400 0.002600 16.327999 0.000300 0.002200 -49.807201 3.894400 2.294500 31.861300 0.639000 -1.719800 32.249298 3.937600 7.359700 -3.691000 0.000000 -0.000000 -49.397900 -9.564000 -14.520900 114.973198 3.372000 0.402000 -7.291600 0.810500 -6.675200 -0.707100 -0.000000 -0.000000 
0.011773 0.886729 1.761084 13.299000 -12.281600 -7.747800 36.380199 2.649700 9.868300 2.126000 -0.517900 3.750300 2.139200 -0.272400 3.771600 7.416900 -1.825300 -0.793400 -0.000000 0.000000 -0.000000 3.048400 -11.657900 2.569200 8.805100 0.044300 5.526000 29.533001 -11.766500 -6.985800 0.000000 -0.000000 -15.820300 20.310699 -12.217600 -9.111500 -4.333400 5.512400 18.201599 -0.003400 0.001800 4.529500 11.377900 -14.251200 -23.091101 17.907101 1.477800 4.577100 -11.717900 0.000300 -0.003100 14.681400 0.000500 0.003800 18.059500 -5.637400 -7.722500 -5.287100 0.000100 -0.001400 0.581800 0.000000 0.000200 15.248600 1.862300 1.723500 -7.443200 0.000100 -0.001900 -5.200400 0.000100 -0.001400 7.094300 0.149500 11.016200 -7.402800 0.000100 -0.001900 6.310400 0.000100 0.001600 -1.236400 -0.809400 -7.182400 40.598400 9.066500 -18.450001 0.000000 0.000000 22.343500 0.191400 -25.910500 3.062900 0.181200 -16.919100 -6.506800 0.243600 0.372100 -12.029900 -16.739300 -10.223900 7.708500 -21.487600 0.000400 -0.002600 14.277200 0.000300 0.002000 7.533000 0.000100 0.001000 -7.789800 -3.295500 -3.984600 20.509300 0.000500 0.002800 8.368300 0.000100 0.001200 -1.066400 -0.297900 -8.668500 30.726999 0.001100 0.004000 12.014700 0.000200 0.001600 4.334500 1.969100 -6.473800 19.603300 0.000400 0.002700 16.503599 0.000300 0.002200 -43.402802 6.165300 4.096900 28.325399 -2.370600 -1.576300 36.560299 4.026600 5.354900 -2.529100 0.000000 -0.000000 -54.300900 -8.475800 -14.653500 107.802696 4.234900 2.081600 -10.059800 1.223500 -6.068100 -3.192000 0.000000 -0.000000 
0.012540 0.845774 1.891722 16.041000 -11.127300 -9.838400 31.945700 -3.020700 11.981700 3.605800 -1.205000 4.191500 3.661200 -0.962700 4.216700 9.044700 -1.274500 -1.550600 -0.000000 0.000000 -0.000000 3.268100 -8.854200 -0.295900 9.687100 0.108800 3.923300 27.696301 -20.500299 -5.531200 0.000000 0.000000 -32.675301 13.279300 -17.216900 -11.162800 -6.212600 4.982900 17.966499 -0.003300 0.001800 4.533000 11.346700 -12.776900 -18.801901 12.147800 1.655400 6.182400 -14.079300 0.000400 -0.003600 12.602900 0.000400 0.003300 12.323000 -5.620600 -7.747300 -5.583900 0.000100 -0.001500 -0.980900 0.000000 -0.000300 8.256400 2.470700 2.543700 -10.707200 0.000300 -0.002800 -8.345500 0.000200 -0.002200 4.360500 -0.439700 10.231000 -9.428600 0.000200 -0.002500 3.721100 0.000000 0.001000 0.121500 -1.802600 -12.154200 48.488701 6.653700 -23.924601 0.000000 0.000000 19.619900 -1.390900 -25.810600 2.055500 0.067800 -17.244499 -6.569700 0.847600 1.300700 -16.069201 -16.784700 -10.269900 7.694800 -17.278299 0.000200 -0.002000 12.948400 0.000200 0.001700 6.204200 0.000000 0.000900 -4.180700 -1.720800 -2.529300 20.473700 0.000500 0.002800 8.332800 0.000100 0.001100 -0.776100 -0.337800 -9.629500 30.511299 0.001100 0.004000 11.799000 0.000200 0.001600 7.493200 1.997400 -6.642500 18.928400 0.000400 0.002600 15.828700 0.000300 0.002200 -42.244301 8.007500 6.799600 34.084202 -3.660700 -1.223700 37.662102 4.252400 2.978900 -0.058100 -0.000000 0.000000 -58.404999 -6.553600 -13.496100 98.591797 1.627200 3.907600 -11.584800 1.684700 -5.264300 -5.231800 0.000000 -0.000000 
0.011734 0.796361 2.018935 17.911900 -10.718800 -10.616500 28.768600 -9.647600 12.220000 4.508400 -1.972100 3.994600 4.612800 -1.750900 4.010300 10.599400 -0.554200 -2.111800 -0.000000 0.000000 -0.000000 2.592900 -4.922200 -2.324900 9.425600 0.135800 1.666800 20.472799 -32.097801 -5.323200 -0.000000 0.000000 -54.813999 0.811200 -28.095100 -11.907700 -7.365400 3.001000 15.473300 -0.003200 0.001800 4.539500 11.179900 -11.059700 -14.156000 1.951400 1.678100 7.393000 -16.935499 0.000700 -0.004400 9.974300 0.000200 0.002600 3.967800 -5.590600 -7.610100 -9.684100 0.000200 -0.002500 -5.059900 0.000100 -0.001300 -1.135200 2.532300 2.632000 -16.214199 0.000600 -0.004200 -13.624300 0.000400 -0.003500 -1.191400 -1.584100 8.668300 -12.363800 0.000400 -0.003200 -0.095000 -0.000000 -0.000000 1.108600 -3.079500 -18.039200 55.017700 3.677100 -30.749599 0.000000 0.000000 18.553600 -0.716300 -26.534700 -2.868000 1.496700 -12.762000 -5.782100 1.215000 1.865600 -18.526199 -16.691799 -10.175800 7.723000 -10.540800 0.000100 -0.001100 12.617500 0.000200 0.001700 5.873300 0.000000 0.000800 2.711300 -0.416900 -1.817100 20.624399 0.000500 0.002800 8.483400 0.000100 0.001200 2.895700 -0.339500 -9.672800 31.001699 0.001100 0.004100 12.289500 0.000200 0.001700 14.703300 1.944900 -6.325600 17.273701 0.000400 0.002300 14.173900 0.000200 0.001900 -38.453800 8.900900 7.772000 37.580700 -4.354400 0.129400 37.976601 3.255800 -2.115500 1.013100 0.000000 -0.000000 -62.144699 -4.358400 -12.468100 88.332497 -5.007600 5.711700 -10.797400 2.243800 -5.334100 -8.069600 0.000000 -0.000000 
